<?xml version="1.0" encoding="UTF-8"?>
<svg width="960" height="200" viewBox="0 0 960 200" xmlns="http://www.w3.org/2000/svg">

<svg x="20" y="20" width="160" height="160" viewBox="218 227 588 575" xmlns="http://www.w3.org/2000/svg">
  
<path d="M0 0 C5.529 0.003 11.059 0 16.588 -0.001 C25.876 -0.003 35.163 -0.001 44.451 0.004 C55.044 0.009 65.637 0.008 76.23 0.002 C85.46 -0.002 94.691 -0.003 103.921 -0 C109.374 0.001 114.826 0.001 120.279 -0.002 C142.992 -0.014 165.695 0.118 188.405 0.565 C189.399 0.583 190.393 0.601 191.418 0.62 C238.125 1.505 287.406 6.739 321.985 41.607 C351.054 72.232 358.671 115.481 359.989 156.222 C360.01 156.868 360.031 157.515 360.052 158.181 C360.7 178.863 360.581 199.559 360.569 220.249 C360.566 226.184 360.569 232.12 360.57 238.056 C360.572 248.022 360.57 257.987 360.565 267.952 C360.559 279.364 360.561 290.775 360.567 302.186 C360.571 312.091 360.572 321.996 360.569 331.902 C360.568 337.77 360.567 343.638 360.571 349.506 C360.582 371.193 360.552 392.87 359.973 414.55 C359.953 415.324 359.932 416.098 359.911 416.896 C358.645 463.296 349.633 504.886 316.005 538.568 C268.94 583.086 193.602 575.302 133.941 575.269 C127.834 575.266 121.726 575.268 115.619 575.27 C105.368 575.272 95.118 575.269 84.868 575.265 C73.121 575.259 61.374 575.261 49.627 575.267 C39.435 575.271 29.244 575.272 19.053 575.269 C13.012 575.268 6.972 575.267 0.932 575.271 C-20.733 575.281 -42.391 575.288 -64.049 574.677 C-64.773 574.657 -65.498 574.636 -66.244 574.616 C-112.402 573.283 -158.569 564.682 -191.944 530.095 C-205.303 515.004 -214.074 497.432 -219.565 478.134 C-219.663 477.802 -219.663 477.802 -220.154 476.123 C-228.012 448.69 -227.718 418.907 -227.711 390.599 C-227.714 388.192 -227.717 385.785 -227.721 383.377 C-227.729 377.56 -227.732 371.742 -227.733 365.925 C-227.733 361.179 -227.735 356.434 -227.738 351.688 C-227.747 338.148 -227.752 324.608 -227.751 311.069 C-227.751 310.342 -227.751 309.616 -227.751 308.867 C-227.751 308.14 -227.751 307.412 -227.751 306.663 C-227.75 294.919 -227.76 283.175 -227.774 271.432 C-227.788 259.29 -227.795 247.149 -227.794 235.007 C-227.794 228.224 -227.797 221.442 -227.807 214.659 C-228.002 82.553 -228.002 82.553 -187.253 39.384 C-160.649 14.001 -125.062 5.557 -89.565 2.134 C-88.845 2.059 -88.125 1.983 -87.382 1.905 C-79.365 1.107 -71.354 0.8 -63.303 0.58 C-62.558 0.559 -61.814 0.538 -61.047 0.517 C-40.701 -0.042 -20.352 -0.013 0 0 Z " fill="#442AC0" transform="translate(445.56546568870544,226.86567449569702)"/>
<g transform="translate(-14.37,-9.43) translate(511.5,514.5) scale(1.3) translate(-511.5,-514.5)">
  <path d="M0 0 C1.547 -0.004 3.094 -0.009 4.642 -0.016 C8.802 -0.029 12.963 -0.024 17.124 -0.015 C21.495 -0.007 25.867 -0.014 30.238 -0.019 C37.57 -0.024 44.901 -0.017 52.232 -0.003 C60.697 0.013 69.161 0.008 77.626 -0.008 C84.915 -0.022 92.205 -0.024 99.494 -0.016 C103.839 -0.011 108.183 -0.011 112.528 -0.021 C116.607 -0.029 120.686 -0.023 124.766 -0.006 C126.259 -0.002 127.753 -0.003 129.247 -0.01 C143.418 -0.067 143.418 -0.067 149.131 3.388 C152.712 7.252 154.25 9.717 154.292 14.926 C154.302 15.868 154.312 16.809 154.322 17.779 C154.324 18.29 154.324 18.29 154.334 20.873 C154.34 21.921 154.346 22.969 154.352 24.049 C154.361 26.272 154.368 28.495 154.372 30.717 C154.381 34.11 154.412 37.503 154.444 40.896 C154.45 43.055 154.456 45.214 154.459 47.373 C154.472 48.385 154.484 49.398 154.497 50.441 C154.48 55.792 154.38 59.902 151.131 64.388 C145.562 69.454 139.978 68.947 132.719 68.886 C131.472 68.892 130.224 68.898 128.938 68.903 C126.232 68.913 123.527 68.915 120.821 68.905 C116.538 68.889 112.255 68.903 107.972 68.921 C99.652 68.951 91.332 68.953 83.012 68.951 C72.425 68.95 61.838 68.96 51.251 69 C46.998 69.014 42.745 69.014 38.492 69.002 C35.219 68.996 31.946 69.009 28.673 69.019 C28.087 69.015 28.087 69.015 25.122 68.996 C18.963 69.034 14.589 69.495 9.131 72.388 C8.636 72.553 8.636 72.553 6.131 73.388 C5.006 75.826 5.006 75.826 4.131 78.388 C3.801 79.048 3.471 79.708 3.131 80.388 C3.027 81.745 2.983 83.107 2.97 84.467 C2.961 85.309 2.951 86.15 2.941 87.017 C2.937 87.928 2.933 88.84 2.928 89.779 C2.923 90.716 2.917 91.654 2.911 92.619 C2.901 94.607 2.895 96.594 2.891 98.581 C2.881 101.612 2.85 104.642 2.819 107.673 C2.812 109.604 2.807 111.535 2.803 113.466 C2.797 113.918 2.797 113.918 2.766 116.204 C2.784 121.303 3.025 125.126 6.131 129.388 C11.912 133.526 16.366 133.959 23.362 133.886 C24.366 133.892 25.37 133.898 26.405 133.903 C28.576 133.912 30.747 133.913 32.918 133.905 C36.357 133.892 39.795 133.903 43.234 133.921 C49.294 133.947 55.354 133.953 61.414 133.952 C71.114 133.949 80.813 133.963 90.513 134.007 C93.896 134.017 97.278 134.008 100.661 133.998 C102.741 134.005 104.821 134.011 106.901 134.019 C107.837 134.012 108.774 134.004 109.738 133.996 C115.303 134.039 119.206 134.74 124.131 137.388 C128.305 141.778 127.564 147.499 127.53 153.201 C127.531 153.724 127.531 153.724 127.538 156.372 C127.541 158.581 127.535 160.79 127.522 162.999 C127.506 166.376 127.522 169.753 127.542 173.13 C127.54 175.279 127.536 177.427 127.53 179.576 C127.536 180.584 127.542 181.593 127.548 182.632 C127.486 188.84 126.743 192.341 122.631 197.138 C119.913 199.403 117.245 199.515 113.863 199.526 C112.992 199.532 112.122 199.537 111.225 199.543 C110.749 199.543 110.749 199.543 108.339 199.546 C107.334 199.551 106.329 199.556 105.293 199.561 C103.108 199.572 100.923 199.581 98.737 199.587 C95.278 199.599 91.819 199.619 88.36 199.641 C78.524 199.702 68.689 199.756 58.853 199.79 C52.839 199.81 46.825 199.846 40.811 199.89 C38.519 199.904 36.227 199.913 33.934 199.916 C30.727 199.921 27.519 199.944 24.312 199.972 C23.366 199.969 22.419 199.966 21.445 199.963 C15.061 200.043 10.778 201.099 5.819 205.388 C3.189 208.506 3.006 211.148 3 215.074 C2.996 216.037 2.992 217.001 2.988 217.993 C2.988 219.048 2.989 220.103 2.99 221.19 C2.988 221.746 2.988 221.746 2.979 224.561 C2.972 226.981 2.966 229.4 2.963 231.82 C2.956 235.648 2.94 239.477 2.921 243.305 C2.869 254.193 2.82 265.08 2.805 275.967 C2.796 282.623 2.766 289.279 2.724 295.935 C2.712 298.473 2.707 301.01 2.709 303.548 C2.711 307.098 2.689 310.648 2.661 314.198 C2.665 314.723 2.665 314.723 2.681 317.377 C2.604 323.368 2.104 326.813 -1.869 331.388 C-5.776 334.822 -9.03 335.513 -14.147 335.549 C-15.225 335.559 -16.304 335.569 -17.415 335.578 C-18.58 335.583 -19.746 335.587 -20.947 335.591 C-22.147 335.597 -23.347 335.603 -24.583 335.609 C-27.125 335.618 -29.667 335.625 -32.209 335.628 C-36.089 335.638 -39.969 335.669 -43.849 335.701 C-46.319 335.707 -48.789 335.712 -51.259 335.716 C-52.417 335.729 -53.574 335.741 -54.767 335.754 C-60.909 335.737 -65.49 335.464 -70.869 332.388 C-74.626 328.433 -75.992 325.353 -76 319.951 C-76.004 319.037 -76.008 318.124 -76.012 317.183 C-76.011 316.178 -76.01 315.173 -76.009 314.137 C-76.012 313.07 -76.015 312.004 -76.018 310.905 C-76.027 307.312 -76.028 303.72 -76.03 300.127 C-76.034 297.558 -76.039 294.99 -76.045 292.421 C-76.058 285.426 -76.064 278.432 -76.069 271.438 C-76.072 267.067 -76.076 262.696 -76.08 258.325 C-76.093 246.215 -76.103 234.105 -76.106 221.994 C-76.106 221.219 -76.107 220.444 -76.107 219.645 C-76.107 218.868 -76.107 218.09 -76.108 217.29 C-76.108 215.715 -76.108 214.14 -76.109 212.565 C-76.109 211.784 -76.109 211.003 -76.11 210.198 C-76.113 197.562 -76.131 184.927 -76.154 172.291 C-76.178 159.307 -76.19 146.323 -76.192 133.339 C-76.193 126.054 -76.198 118.769 -76.216 111.483 C-76.234 104.622 -76.235 97.761 -76.226 90.9 C-76.226 88.389 -76.23 85.878 -76.24 83.366 C-76.332 58.433 -73.376 38.478 -55.556 19.638 C-40.019 4.714 -20.97 -0.094 0 0 Z " fill="#F8F8F8" transform="translate(547.86865234375,350.61181640625)"/>
  <path d="M0 0 C1.057 -0.004 2.115 -0.008 3.204 -0.012 C5.429 -0.014 7.655 -0.007 9.88 0.01 C13.271 0.031 16.66 0.01 20.051 -0.016 C22.221 -0.013 24.392 -0.008 26.562 0 C27.065 -0.004 27.065 -0.004 29.609 -0.025 C35.606 0.055 41.012 0.592 45.781 4.531 C49.558 9.215 50.358 12.876 50.282 18.736 C50.285 19.141 50.285 19.141 50.299 21.191 C50.313 23.897 50.298 26.603 50.283 29.309 C50.287 31.252 50.292 33.196 50.299 35.139 C50.313 40.412 50.302 45.684 50.286 50.957 C50.272 56.475 50.278 61.992 50.282 67.51 C50.284 76.775 50.271 86.039 50.248 95.304 C50.221 106.017 50.219 116.73 50.231 127.444 C50.242 137.749 50.236 148.053 50.222 158.358 C50.216 162.745 50.216 167.131 50.221 171.517 C50.225 176.681 50.215 181.844 50.194 187.008 C50.188 188.904 50.188 190.8 50.193 192.696 C50.199 195.282 50.186 197.867 50.169 200.454 C50.175 201.205 50.181 201.957 50.187 202.732 C50.133 207.184 49.495 209.979 46.781 213.531 C42.528 217.359 39.525 218.648 33.854 218.692 C32.853 218.702 31.851 218.712 30.82 218.721 C29.738 218.726 28.657 218.73 27.543 218.734 C26.986 218.737 26.986 218.737 24.169 218.752 C21.811 218.761 19.453 218.768 17.095 218.771 C13.493 218.781 9.892 218.812 6.291 218.844 C4 218.85 1.709 218.856 -0.582 218.859 C-1.12 218.866 -1.12 218.866 -3.84 218.897 C-9.375 218.88 -13.48 218.738 -18.219 215.531 C-22.916 210.454 -23.368 206.456 -23.366 199.777 C-23.37 198.979 -23.373 198.181 -23.377 197.358 C-23.388 194.676 -23.392 191.993 -23.396 189.31 C-23.402 187.389 -23.409 185.469 -23.416 183.549 C-23.433 178.326 -23.444 173.103 -23.452 167.879 C-23.457 164.617 -23.463 161.354 -23.469 158.092 C-23.488 147.885 -23.503 137.679 -23.511 127.473 C-23.521 115.688 -23.547 103.903 -23.587 92.118 C-23.618 83.012 -23.632 73.905 -23.636 64.798 C-23.638 59.358 -23.647 53.918 -23.672 48.478 C-23.695 43.36 -23.7 38.241 -23.689 33.123 C-23.689 31.245 -23.695 29.368 -23.709 27.491 C-23.727 24.925 -23.72 22.36 -23.706 19.794 C-23.717 19.054 -23.728 18.313 -23.74 17.551 C-23.672 12.037 -22.226 8.987 -19.219 4.531 C-13.816 -0.233 -6.827 -0.055 0 0 Z " fill="#F8F7F8" transform="translate(366.21875,480.612) scale(1,0.9361)"/>
  <path d="M0 0 C2.456 1.198 4.689 2.391 7 3.812 C7.577 4.156 8.155 4.5 8.75 4.854 C9.91 5.544 11.068 6.238 12.223 6.936 C15.122 8.671 18.062 10.332 21 12 C21 12.66 21 13.32 21 14 C21.66 14.062 22.32 14.124 23 14.188 C26.465 15.126 28.852 16.663 31.836 18.613 C33.974 19.983 36.146 21.221 38.375 22.438 C58.506 33.506 58.506 33.506 64 39 C64.336 41.242 64.336 41.242 64.375 43.875 C64.403 44.739 64.432 45.602 64.461 46.492 C63.843 49.853 62.635 50.863 60 53 C58.118 54.202 56.198 55.345 54.25 56.438 C48.592 59.66 43.07 63.026 37.594 66.547 C30.395 71.163 23.092 75.582 15.747 79.958 C13.286 81.426 10.831 82.9 8.375 84.375 C6.917 85.25 5.458 86.125 4 87 C3.147 87.54 2.293 88.08 1.414 88.637 C-1.69 90.39 -3.483 90.513 -7 90 C-9.647 88.473 -9.647 88.473 -12 86 C-12.505 83.134 -12.685 80.856 -12.647 77.99 C-12.656 77.187 -12.664 76.383 -12.674 75.555 C-12.696 72.901 -12.681 70.248 -12.664 67.594 C-12.667 65.748 -12.672 63.903 -12.679 62.057 C-12.686 58.19 -12.675 54.324 -12.652 50.457 C-12.623 45.5 -12.64 40.544 -12.67 35.587 C-12.688 31.776 -12.682 27.966 -12.669 24.155 C-12.666 22.327 -12.67 20.5 -12.681 18.672 C-12.694 16.117 -12.675 13.564 -12.647 11.01 C-12.657 10.254 -12.667 9.499 -12.678 8.721 C-12.601 4.935 -12.289 3.31 -9.671 0.499 C-5.95 -1.589 -4.076 -1.111 0 0 Z " fill="#FD296C" transform="translate(359,370.143)"/>
</g>
</svg>

<path fill="#FFFFFF" d="M220.950 62.770L243.810 62.770L243.810 76.270L220.950 76.270L220.950 62.770M221.580 130L221.580 85.900L243.180 85.900L243.180 130L221.580 130M250.560 102.100L250.560 88.600L307.620 88.600L307.620 102.100L250.560 102.100M286.830 67.900L307.620 67.900L307.620 82.300L295.830 82.300Q292.230 82.210 290.295 82.660Q288.360 83.110 287.595 84.460Q286.830 85.810 286.830 88.600L286.830 130L265.230 130L265.230 84.100Q265.230 78.700 267.255 75.100Q269.280 71.500 274.005 69.700Q278.730 67.900 286.830 67.900M346.140 131.260Q336.420 131.260 328.860 128.515Q321.300 125.770 316.935 120.550Q312.570 115.330 312.570 107.950Q312.570 100.210 316.935 94.990Q321.300 89.770 328.860 87.160Q336.420 84.550 346.140 84.550Q356.940 84.550 364.815 87.475Q372.690 90.400 376.965 95.665Q381.240 100.930 381.240 107.950Q381.240 113.170 378.810 117.445Q376.380 121.720 371.790 124.825Q367.200 127.930 360.720 129.595Q354.240 131.260 346.140 131.260M354.240 117.580Q361.080 117.580 366.795 116.725Q372.510 115.870 375.975 113.800Q379.440 111.730 379.440 107.950Q379.440 104.080 375.975 102.010Q372.510 99.940 366.795 99.130Q361.080 98.320 354.240 98.320Q345.060 98.320 340.020 100.705Q334.980 103.090 334.980 107.950Q334.980 111.100 337.230 113.260Q339.480 115.420 343.800 116.500Q348.120 117.580 354.240 117.580M379.440 112.900L379.440 85.900L401.040 85.900L401.040 130L380.700 130Q380.700 130 380.385 127.930Q380.070 125.860 379.755 121.990Q379.440 118.120 379.440 112.900M409.140 130L409.140 85.900L430.740 85.900L430.740 130L409.140 130M463.140 84.550Q468.450 84.550 473.400 85.675Q478.350 86.800 482.265 89.500Q486.180 92.200 488.520 96.880Q490.860 101.560 490.860 108.670L490.860 130L469.260 130L469.260 111.370Q469.260 104.620 465.750 101.785Q462.240 98.950 453.060 98.950Q448.200 98.950 443.655 100.030Q439.110 101.110 435.510 102.595Q431.910 104.080 429.840 105.520L429.660 102.100Q430.020 100.480 432.135 97.555Q434.250 94.630 438.300 91.660Q442.350 88.690 448.515 86.620Q454.680 84.550 463.140 84.550M498.510 114.160L518.400 114.160Q519.660 116.500 523.215 117.400Q526.770 118.300 533.430 118.300Q538.560 118.300 541.035 117.760Q543.510 117.220 544.275 116.320Q545.040 115.420 545.040 114.430Q545.040 112.900 543.375 112.315Q541.710 111.730 537.750 111.595Q533.790 111.460 526.860 111.460Q520.290 111.460 515.115 110.875Q509.940 110.290 506.340 108.985Q502.740 107.680 500.850 105.340Q498.960 103 498.960 99.490Q498.960 95.170 501.750 92.245Q504.540 89.320 509.310 87.655Q514.080 85.990 520.335 85.270Q526.590 84.550 533.430 84.550Q544.770 84.550 551.970 86.845Q559.170 89.140 562.590 93.010Q566.010 96.880 565.920 101.740L546.570 101.740Q545.580 99.400 542.835 98.500Q540.090 97.600 533.430 97.600Q527.130 97.600 524.295 98.545Q521.460 99.490 521.460 101.560Q521.460 102.910 522.855 103.585Q524.250 104.260 528.165 104.530Q532.080 104.800 539.640 104.800Q544.860 104.800 549.855 105.160Q554.850 105.520 558.855 106.690Q562.860 107.860 565.200 110.290Q567.540 112.720 567.540 116.950Q567.540 122.080 563.355 125.275Q559.170 128.470 551.520 129.910Q543.870 131.350 533.430 131.350Q524.340 131.350 518.085 130.180Q511.830 129.010 507.870 127.075Q503.910 125.140 501.795 122.845Q499.680 120.550 499.005 118.255Q498.330 115.960 498.510 114.160"/><path fill="#FD296C" d="M575.190 116.410L598.050 116.410L598.050 130L575.190 130L575.190 116.410M668.160 110.830L687.960 110.830Q687.960 117.310 683.910 121.900Q679.860 126.490 671.130 128.920Q662.400 131.350 648.450 131.350Q634.500 131.350 624.735 129.100Q614.970 126.850 609.885 121.720Q604.800 116.590 604.800 108.040Q604.800 99.490 609.885 94.315Q614.970 89.140 624.735 86.845Q634.500 84.550 648.450 84.550Q662.400 84.550 671.040 86.980Q679.680 89.410 683.730 94Q687.780 98.590 687.870 104.980L668.070 104.980Q666.630 101.470 661.590 99.535Q656.550 97.600 648.450 97.600Q641.880 97.600 637.020 98.545Q632.160 99.490 629.505 101.740Q626.850 103.990 626.850 108.040Q626.850 112 629.460 114.250Q632.070 116.500 636.930 117.400Q641.790 118.300 648.450 118.300Q656.550 118.300 661.635 116.365Q666.720 114.430 668.160 110.830M696.510 130L696.510 67.900L718.110 67.900L718.110 130L696.510 130M728.460 62.770L751.320 62.770L751.320 76.270L728.460 76.270L728.460 62.770M729.090 130L729.090 85.900L750.690 85.900L750.690 130L729.090 130M822.780 110.830L842.580 110.830Q842.580 117.310 838.530 121.900Q834.480 126.490 825.750 128.920Q817.020 131.350 803.070 131.350Q789.120 131.350 779.355 129.100Q769.590 126.850 764.505 121.720Q759.420 116.590 759.420 108.040Q759.420 99.490 764.505 94.315Q769.590 89.140 779.355 86.845Q789.120 84.550 803.070 84.550Q817.020 84.550 825.660 86.980Q834.300 89.410 838.350 94Q842.400 98.590 842.490 104.980L822.690 104.980Q821.250 101.470 816.210 99.535Q811.170 97.600 803.070 97.600Q796.500 97.600 791.640 98.545Q786.780 99.490 784.125 101.740Q781.470 103.990 781.470 108.040Q781.470 112 784.080 114.250Q786.690 116.500 791.550 117.400Q796.410 118.300 803.070 118.300Q811.170 118.300 816.255 116.365Q821.340 114.430 822.780 110.830M850.680 130L850.680 67.900L872.280 67.900L872.280 130L850.680 130M898.380 85.900L927 85.900L891.360 110.650L891.810 98.950L930.060 130L902.700 130L872.640 104.890"/>
</svg>